<svg id="グループ_1" data-name="グループ 1" xmlns="http://www.w3.org/2000/svg" width="1614.622" height="1719.214" viewBox="0 0 1614.622 1719.214">
  <defs>
    <style>
      .cls-1, .cls-2, .cls-3, .cls-4 {
        fill-rule: evenodd;
      }

      .cls-2 {
        fill: #fce100;
      }

      .cls-3 {
        fill: #13a10e;
      }

      .cls-4 {
        fill: #8e562e;
      }

      .cls-5 {
        fill: #dfbe00;
      }
    </style>
  </defs>
  <path id="べた塗り_4" data-name="べた塗り 4" class="cls-1" d="M1113,395a303.551,303.551,0,0,0,18-65,354.739,354.739,0,0,0,4-48c0.1-4.872.02-15.22,0-23-0.01-3.5,0-13.989,0-21V165H822c-32.71,0-80.648.3-97,0-7.822-.143-15.227-0.147-23,0-26.353.5-50.959,2.448-72,6a414.473,414.473,0,0,0-51,12c-43.962,13.3-83.806,32.866-118,57-15.523,10.956-35.962,28.5-55,46-8.608,7.913-16.806,15.782-25,24a157.57,157.57,0,0,0-46-27c-16.33-6.151-36.346-10.36-62-10-30.341.426-52.852,6.913-70,15a160.61,160.61,0,0,0-58,47,162.612,162.612,0,0,0-31,66,157.132,157.132,0,0,0,1,71c2.938,11.654,9.259,27.167,18,43a242.467,242.467,0,0,0,23,34c12.567,15.789,24.67,27.745,39,41,11.693,10.815,23.434,21.556,35,32a336.961,336.961,0,0,0-9,44c-2.584,19.011-3.02,34.782-3,53,0.02,18.38-.053,36.62,0,55,0.012,4.341,0,17.318,0,26V951s0.143,77.41,0,93c-0.291,31.77-.757,67.62,0,93,1.342,45.01,4.518,91,10,124,8.553,51.5,23.385,103.91,45,157,21.431,52.63,47.26,100.22,77,143,10.668,15.35,21.9,30.21,34,45,42.307,51.72,92.879,98.68,150,139,61.245,43.23,125.22,75.72,190,98,69.579,23.94,150.121,39.15,247,41,6.647,0.13,23.183.01,35,0,21.54-.03,85.97,0,129,0h241c6.34,0,15.71-.01,19,0,12.24,0.02,28.54.28,35.8,0.01,24.65-.94,53.75-7,87.67-20.45,57.54-22.8,113.33-65.42,152-123.66,44.85-67.55,54.4-135.95,54.53-168.9,0.01-1.68,0-6.66,0-10V1314c0-40.18-.14-99.91,0-120,0.07-10.63.04-25.92,0-39-0.12-36.18-.85-71.38-4-102-1.56-15.17-3.54-30.04-6-45-13.49-82.1-45.52-171.722-91-250a758.931,758.931,0,0,0-379-325A748.182,748.182,0,0,0,1113,395Z" transform="translate(-110.438 -164.906)"/>
  <path id="べた塗り_1" data-name="べた塗り 1" class="cls-2" d="M357,595c-5.016,7.767-26.839,48.838-31,89a200.474,200.474,0,0,0-1,24c0.754,39.205.913,222.414,1,251,0.024,7.848,0,31.3,0,47v78c0,14.71.034,36.65,0,44-0.066,14.33-.311,32.3,0,42,0.982,30.6,6.442,66.93,16.085,106.37C357.261,1338.44,377.211,1390.31,401,1435a638.724,638.724,0,0,0,90,128,647.7,647.7,0,0,0,168,133c56.728,31.28,120.658,55.01,191,69a677.189,677.189,0,0,0,95,12h437c11.43-.14,22.73-0.8,34-2,26.17-2.78,51.72-8.4,66-14,23.5-9.21,47.7-24.48,71-48,31.61-31.9,57.8-77.74,62.5-129.91,0.78-8.59.65-17.45,0.5-27.09-0.37-23.33.16-45.67,0-69-0.08-11.05,0-43.9,0-66V1245c0-36.04-.03-89.98,0-108,0.02-9.81.13-23.39,0-29-1.97-88.19-24.49-180.284-70-269a655.471,655.471,0,0,0-78-118,611.3,611.3,0,0,0-168-143c-73.65-43.241-152.64-72.268-229-83a739.047,739.047,0,0,0-97-7C814.4,488.327,433.547,476.484,357,595Z" transform="translate(-110.438 -164.906)"/>
  <path id="べた塗り_3" data-name="べた塗り 3" class="cls-3" d="M1024,275.094H779c-24,0-59,.262-71,0-5.485-.12-10.672-0.137-16,0a318.484,318.484,0,0,0-155,44.987,322.455,322.455,0,0,0-90.25,80.976c-16.679,21.81-38.819,62.129-54.75,107.969A484.963,484.963,0,0,0,370,600H706c3.679,0,9.1.01,11,0,39.648-.208,82.566-12.823,122-31.991,52.223-25.384,92.511-59.957,121-97.972C1002.13,413.821,1023.83,345.438,1024,275.094Z" transform="translate(-110.438 -164.906)"/>
  <path id="べた塗り_2" data-name="べた塗り 2" class="cls-4" d="M306.588,390.958c-22.771-16.6-54.2-13.287-72.205,6.571-16.591,18.293-18.3,46.792-3.228,67.9L456.228,693.41a53.455,53.455,0,0,0,75.433-74.471Z" transform="translate(-110.438 -164.906)"/>
  <circle id="楕円形_1_のコピー" data-name="楕円形 1 のコピー" class="cls-5" cx="621.562" cy="1049.094" r="80"/>
  <circle id="楕円形_1_のコピー_2" data-name="楕円形 1 のコピー 2" class="cls-5" cx="889.562" cy="1049.094" r="80"/>
  <circle id="楕円形_1_のコピー_3" data-name="楕円形 1 のコピー 3" class="cls-5" cx="621.562" cy="1317.094" r="80"/>
  <circle id="楕円形_1_のコピー_4" data-name="楕円形 1 のコピー 4" class="cls-5" cx="889.562" cy="1317.094" r="80"/>
</svg>
