<svg xmlns="http://www.w3.org/2000/svg" width="1612.655" height="1720.34" viewBox="0 0 1612.655 1720.34">
  <defs>
    <style>
      .cls-1 {
        fill: #ffd500;
      }
    </style>
  </defs>
  <path class="cls-1" d="M1057.38,184.33q3.735-38.147,3.74-76.294,0-19.441-.37-38.52-0.39-19.074-.37-38.521H630.288q-94.246,0-178.019,38.521T306.413,178.346A150.772,150.772,0,0,0,257.046,148.8,164.628,164.628,0,0,0,200.2,138.7a155.575,155.575,0,0,0-62.83,12.716,168.416,168.416,0,0,0-51.237,34.407,160.435,160.435,0,0,0-34.781,50.863,155.372,155.372,0,0,0-12.716,62.83q0,28.434,9.35,52.358a206.068,206.068,0,0,0,23.935,44.505,303.923,303.923,0,0,0,33.285,39.269q18.687,18.7,38.147,36.651l14.211,13.463a308.8,308.8,0,0,0-11.219,83.026V998.878q0,103.968,26.927,200.082a754.639,754.639,0,0,0,525.455,525.46q96.1,26.925,200.084,26.92H1328.9q66.57,0,125.29-25.43t102.47-69.18q43.755-43.77,69.19-102.48,25.41-58.725,25.43-125.28V998.878a739.23,739.23,0,0,0-20.57-174.653,747.257,747.257,0,0,0-59.09-161.189,776.975,776.975,0,0,0-92.75-142.49,739.82,739.82,0,0,0-121.92-118.18,773.81,773.81,0,0,0-146.98-88.636,731.857,731.857,0,0,0-167.55-53.854A397.7,397.7,0,0,0,1057.38,184.33Zm469.36,1328.41a216.25,216.25,0,0,1-114.07,114.07q-38.895,16.83-83.77,16.83H898.812q-89.022,0-171.287-23.19a659.489,659.489,0,0,1-154.084-65.08,648.859,648.859,0,0,1-130.9-100.6,632.254,632.254,0,0,1-100.977-130.52,658.672,658.672,0,0,1-65.074-154.08Q253.3,1087.9,253.307,998.878V568.791a203.066,203.066,0,0,1,1.87-27.3,90.077,90.077,0,0,1,7.853-26.554q15.708,15.708,32.163,34.407A386.737,386.737,0,0,0,330.348,584.5a196.483,196.483,0,0,0,39.643,27.3,96.1,96.1,0,0,0,44.879,10.845,107.116,107.116,0,0,0,41.513-8.227,101.167,101.167,0,0,0,34.781-23.936q31.414-31.414,31.415-75.546H630.288A371.515,371.515,0,0,0,719.3,504.091a390.876,390.876,0,0,0,84.522-31.415,368.078,368.078,0,0,0,74.8-50.489,329.041,329.041,0,0,0,59.091-67.318,630.416,630.416,0,0,1,163.063,31.415,659.17,659.17,0,0,1,145.1,69.188A644.773,644.773,0,0,1,1462.04,685.1a656.982,656.982,0,0,1,60.21,149.221,631.1,631.1,0,0,1,21.32,164.555V1428.97Q1543.57,1473.835,1526.74,1512.74ZM473.96,417.7Q454.5,396.768,433.569,376.56q-20.949-20.195-42.26-39.268t-40.017-38.521Q396.171,222.477,469.1,180.59T630.288,138.7H952.666q0,66.582-25.431,125.287Q901.8,322.718,858.047,366.463T755.574,435.651q-58.728,25.437-125.286,25.431H508.367A346.621,346.621,0,0,0,473.96,417.7ZM397.666,566.173a38.739,38.739,0,0,1-14.959-7.854q-20.2-18.687-38.895-38.895t-38.147-39.643q-35.9-35.9-71.806-71.057t-71.806-71.058a51.939,51.939,0,0,1-15.707-38.147q0-23.177,16.455-38.521,16.445-15.322,39.643-15.334,11.957,0,23.935,7.106a122.961,122.961,0,0,1,22.44,17.2q10.465,10.1,19.821,20.943t16.83,18.325q38.146,38.148,75.919,75.92t75.92,75.92q12.709,12.728,22.066,23.561,9.343,10.853,9.349,30.293a53.63,53.63,0,0,1-53.854,53.855A61.088,61.088,0,0,1,397.666,566.173ZM893.95,1273.76a81.9,81.9,0,0,0-25.431,17.2,80.639,80.639,0,0,0-17.2,25.81,79.476,79.476,0,0,0-6.358,31.41,78.583,78.583,0,0,0,6.358,31.79,81.067,81.067,0,0,0,42.635,42.64,78.637,78.637,0,0,0,31.789,6.36,76.839,76.839,0,0,0,31.041-6.36,83.8,83.8,0,0,0,43.38-43.38,78.95,78.95,0,0,0,0-62.09,83.8,83.8,0,0,0-43.38-43.38,77.006,77.006,0,0,0-31.041-6.36A78.8,78.8,0,0,0,893.95,1273.76Zm-268.524,0a81.918,81.918,0,0,0-25.432,17.2,80.652,80.652,0,0,0-17.2,25.81,79.476,79.476,0,0,0-6.358,31.41,78.583,78.583,0,0,0,6.358,31.79,81.058,81.058,0,0,0,42.635,42.64,78.633,78.633,0,0,0,31.789,6.36,79.533,79.533,0,0,0,31.415-6.36,73.743,73.743,0,0,0,25.431-17.58,90.669,90.669,0,0,0,16.83-25.8,78.973,78.973,0,0,0,0-62.09,90.669,90.669,0,0,0-16.83-25.8,73.879,73.879,0,0,0-25.431-17.58,79.709,79.709,0,0,0-31.415-6.36A78.8,78.8,0,0,0,625.426,1273.76ZM893.95,1005.24a81.9,81.9,0,0,0-25.431,17.2,80.594,80.594,0,0,0-17.2,25.8,79.559,79.559,0,0,0-6.358,31.42,78.583,78.583,0,0,0,6.358,31.79,74.566,74.566,0,0,0,17.578,25.06,90.076,90.076,0,0,0,25.8,16.83,79.045,79.045,0,0,0,62.082,0,86.224,86.224,0,0,0,25.805-17.21,78.7,78.7,0,0,0,17.575-25.43,78.925,78.925,0,0,0,0-62.08,83.7,83.7,0,0,0-43.38-43.38,77.008,77.008,0,0,0-31.041-6.362A78.806,78.806,0,0,0,893.95,1005.24Zm-268.524,0a81.918,81.918,0,0,0-25.432,17.2,80.607,80.607,0,0,0-17.2,25.8,79.559,79.559,0,0,0-6.358,31.42,78.583,78.583,0,0,0,6.358,31.79,74.578,74.578,0,0,0,17.577,25.06,90.094,90.094,0,0,0,25.806,16.83,79.045,79.045,0,0,0,62.082,0,81.067,81.067,0,0,0,42.635-42.64,78.948,78.948,0,0,0,0-62.08,90.72,90.72,0,0,0-16.83-25.81,73.855,73.855,0,0,0-25.431-17.57,79.711,79.711,0,0,0-31.415-6.362A78.8,78.8,0,0,0,625.426,1005.24Z" transform="translate(-38.625 -31)"/>
</svg>
