<svg xmlns="http://www.w3.org/2000/svg" width="1674.752" height="1786.591" viewBox="0 0 1674.752 1786.591">
  <defs>
    <style>
      .cls-1 {
        fill: #1f1f1f;
        fill-rule: evenodd;
      }
    </style>
  </defs>
  <path id="_" data-name="ðŸ‹" class="cls-1" d="M1219.9,229.965q3.87-39.609,3.88-79.238,0-20.192-.38-40-0.4-19.786-.38-40H776.354q-97.859,0-184.858,40Q504.474,150.739,440.02,223.75a156.739,156.739,0,0,0-51.285-30.667,170.722,170.722,0,0,0-59.025-10.5A161.677,161.677,0,0,0,264.449,195.8a174.829,174.829,0,0,0-53.214,35.715,166.736,166.736,0,0,0-36.119,52.833,161.634,161.634,0,0,0-13.191,65.239q0,29.546,9.714,54.381A213.405,213.405,0,0,0,196.5,450.179a316.341,316.341,0,0,0,34.549,40.786q19.416,19.451,39.641,38.071l14.739,13.976a320.976,320.976,0,0,0-11.643,86.215V1075.89q0,107.955,27.953,207.79a783.6,783.6,0,0,0,545.691,545.69q99.81,27.93,207.8,27.95h446.65q69.12,0,130.12-26.4,60.975-26.415,106.4-71.84,45.435-45.465,71.86-106.42,26.415-60.99,26.43-130.12V1075.89a767.592,767.592,0,0,0-21.38-181.378,776.631,776.631,0,0,0-61.36-167.4,806.975,806.975,0,0,0-96.33-147.977A768.625,768.625,0,0,0,1531,456.416a804.7,804.7,0,0,0-152.62-92.07,759.427,759.427,0,0,0-174-55.929A413.608,413.608,0,0,0,1219.9,229.965Zm487.43,1379.6a224.493,224.493,0,0,1-118.45,118.43q-40.38,17.46-87,17.48H1055.23q-92.467,0-177.9-24.08a685.362,685.362,0,0,1-160-67.57,675.536,675.536,0,0,1-135.951-104.47A656.553,656.553,0,0,1,476.52,1413.78a685,685,0,0,1-67.594-160.01q-24.094-85.44-24.072-177.88V629.227a210.235,210.235,0,0,1,1.952-28.335,94.154,94.154,0,0,1,8.166-27.594q16.287,16.322,33.382,35.738a403.509,403.509,0,0,0,36.5,36.523,204.132,204.132,0,0,0,41.167,28.335,99.824,99.824,0,0,0,46.619,11.262,111.34,111.34,0,0,0,43.118-8.548,104.885,104.885,0,0,0,36.119-24.857q32.609-32.609,32.62-78.453H776.354a385.742,385.742,0,0,0,92.452-11.262,405.154,405.154,0,0,0,87.762-32.619,381.777,381.777,0,0,0,77.692-52.429,341.652,341.652,0,0,0,61.36-69.927q88.56,5.451,169.35,32.641a684.783,684.783,0,0,1,150.69,71.857,669.267,669.267,0,0,1,224.48,238.476,682.231,682.231,0,0,1,62.55,154.954,655.326,655.326,0,0,1,22.14,170.9v446.65Q1724.83,1569.145,1707.33,1609.56ZM614.02,472.322q-20.192-21.74-41.952-42.715-21.739-20.966-43.882-40.786-22.142-19.787-41.57-40,46.607-79.215,122.356-122.738,75.716-43.477,167.382-43.5H1111.16q0,69.12-26.42,130.119-26.43,60.976-71.86,106.428-45.432,45.429-106.407,71.835T776.354,517.37h-126.6A359.8,359.8,0,0,0,614.02,472.322Zm-79.238,154.19a39.862,39.862,0,0,1-15.525-8.166q-21-19.383-40.4-40.381Q459.4,557,439.234,536.8q-37.285-37.286-74.571-73.786T290.092,389.2q-16.321-16.287-16.31-39.619,0-24.061,17.1-40,17.094-15.918,41.167-15.929,12.417,0,24.857,7.381a127.269,127.269,0,0,1,23.286,17.88q10.87,10.5,20.595,21.739,9.692,11.274,17.476,19.024,39.609,39.642,78.834,78.857,39.239,39.237,78.857,78.834,13.191,13.224,22.905,24.476,9.692,11.273,9.714,31.452,0,23.321-16.31,39.619-16.32,16.321-39.618,16.31A63.491,63.491,0,0,1,534.782,626.512ZM1050.19,1361.37a85.145,85.145,0,0,0-26.43,17.86,83.477,83.477,0,0,0-17.86,26.81,84.921,84.921,0,0,0,0,65.62,84.165,84.165,0,0,0,44.29,44.28,81.622,81.622,0,0,0,33,6.6,79.854,79.854,0,0,0,32.24-6.6,87.164,87.164,0,0,0,45.04-45.05,81.791,81.791,0,0,0,0-64.47,86.974,86.974,0,0,0-45.04-45.05,79.87,79.87,0,0,0-32.24-6.62A81.632,81.632,0,0,0,1050.19,1361.37Zm-278.884,0a84.892,84.892,0,0,0-26.405,17.86,83.56,83.56,0,0,0-17.88,26.81,84.9,84.9,0,0,0,0,65.62,84.362,84.362,0,0,0,44.285,44.28,84.907,84.907,0,0,0,65.643,0,76.546,76.546,0,0,0,26.405-18.26,93.74,93.74,0,0,0,17.476-26.79,81.814,81.814,0,0,0,0-64.47,93.841,93.841,0,0,0-17.476-26.81,76.5,76.5,0,0,0-26.405-18.24A84.671,84.671,0,0,0,771.306,1361.37Zm278.884-278.88a85.145,85.145,0,0,0-26.43,17.86,83.477,83.477,0,0,0-17.86,26.81,84.971,84.971,0,0,0,0,65.64,77.533,77.533,0,0,0,18.24,26.02,93.832,93.832,0,0,0,26.81,17.48,82.158,82.158,0,0,0,64.48,0,89.8,89.8,0,0,0,26.78-17.88,81.64,81.64,0,0,0,18.26-26.41,81.792,81.792,0,0,0,0-64.47,87.164,87.164,0,0,0-45.04-45.05,79.854,79.854,0,0,0-32.24-6.6A81.622,81.622,0,0,0,1050.19,1082.49Zm-278.884,0a84.892,84.892,0,0,0-26.405,17.86,83.56,83.56,0,0,0-17.88,26.81,84.947,84.947,0,0,0,0,65.64,77.506,77.506,0,0,0,18.262,26.02,93.918,93.918,0,0,0,26.808,17.48,82.151,82.151,0,0,0,64.477,0,84.187,84.187,0,0,0,44.262-44.29,81.814,81.814,0,0,0,0-64.47,93.74,93.74,0,0,0-17.476-26.79,76.546,76.546,0,0,0-26.405-18.26A84.907,84.907,0,0,0,771.306,1082.49Z" transform="translate(-161.938 -70.719)"/>
</svg>
